<mxfile host="app.diagrams.net" modified="2023-01-20T11:51:17.638Z" agent="5.0 (Windows NT 10.0; Win64; x64) AppleWebKit/537.36 (KHTML, like Gecko) Chrome/109.0.0.0 Safari/537.36" version="20.8.1" etag="XDIL0Fmd4PyQMBwDZL_L" type="github">
  <diagram id="YFZpdnjRY7JOAPRFk-zD" name="Page-1">
    <mxGraphModel dx="1434" dy="802" grid="1" gridSize="10" guides="1" tooltips="1" connect="1" arrows="1" fold="1" page="1" pageScale="1" pageWidth="850" pageHeight="1100" math="0" shadow="0">
      <root>
        <mxCell id="0" />
        <mxCell id="1" parent="0" />
        <mxCell id="UgS9SmJDnNEr5DDOdhRN-8" style="edgeStyle=orthogonalEdgeStyle;rounded=0;orthogonalLoop=1;jettySize=auto;html=1;exitX=1;exitY=0.5;exitDx=0;exitDy=0;" edge="1" parent="1" source="UgS9SmJDnNEr5DDOdhRN-1" target="UgS9SmJDnNEr5DDOdhRN-2">
          <mxGeometry relative="1" as="geometry" />
        </mxCell>
        <mxCell id="UgS9SmJDnNEr5DDOdhRN-12" style="edgeStyle=orthogonalEdgeStyle;rounded=0;orthogonalLoop=1;jettySize=auto;html=1;exitX=0.5;exitY=1;exitDx=0;exitDy=0;entryX=0.341;entryY=0.012;entryDx=0;entryDy=0;entryPerimeter=0;" edge="1" parent="1" source="UgS9SmJDnNEr5DDOdhRN-1" target="UgS9SmJDnNEr5DDOdhRN-5">
          <mxGeometry relative="1" as="geometry" />
        </mxCell>
        <mxCell id="UgS9SmJDnNEr5DDOdhRN-1" value="&lt;b&gt;API&lt;br&gt;&lt;/b&gt;&lt;br&gt;&lt;br&gt;&lt;br&gt;Controllers&lt;br&gt;Startup&lt;br&gt;Middlewares" style="whiteSpace=wrap;html=1;aspect=fixed;fillColor=#d5e8d4;strokeColor=#82b366;" vertex="1" parent="1">
          <mxGeometry x="100" y="80" width="160" height="160" as="geometry" />
        </mxCell>
        <mxCell id="UgS9SmJDnNEr5DDOdhRN-9" style="edgeStyle=orthogonalEdgeStyle;rounded=0;orthogonalLoop=1;jettySize=auto;html=1;exitX=0;exitY=1;exitDx=0;exitDy=0;entryX=0.75;entryY=0;entryDx=0;entryDy=0;" edge="1" parent="1" source="UgS9SmJDnNEr5DDOdhRN-2" target="UgS9SmJDnNEr5DDOdhRN-5">
          <mxGeometry relative="1" as="geometry" />
        </mxCell>
        <mxCell id="UgS9SmJDnNEr5DDOdhRN-10" style="edgeStyle=orthogonalEdgeStyle;rounded=0;orthogonalLoop=1;jettySize=auto;html=1;exitX=0.25;exitY=1;exitDx=0;exitDy=0;entryX=0.25;entryY=0;entryDx=0;entryDy=0;" edge="1" parent="1" source="UgS9SmJDnNEr5DDOdhRN-2" target="UgS9SmJDnNEr5DDOdhRN-4">
          <mxGeometry relative="1" as="geometry" />
        </mxCell>
        <mxCell id="UgS9SmJDnNEr5DDOdhRN-11" style="edgeStyle=orthogonalEdgeStyle;rounded=0;orthogonalLoop=1;jettySize=auto;html=1;exitX=0.75;exitY=1;exitDx=0;exitDy=0;entryX=0.808;entryY=0.017;entryDx=0;entryDy=0;entryPerimeter=0;" edge="1" parent="1" source="UgS9SmJDnNEr5DDOdhRN-2" target="UgS9SmJDnNEr5DDOdhRN-4">
          <mxGeometry relative="1" as="geometry" />
        </mxCell>
        <mxCell id="UgS9SmJDnNEr5DDOdhRN-2" value="&lt;b&gt;Infrastructure&lt;/b&gt;&lt;br&gt;&lt;br&gt;&lt;br&gt;&lt;br&gt;Repository&lt;br&gt;DbContext&lt;br&gt;Services&lt;br&gt;&lt;br&gt;&lt;br&gt;&lt;br&gt;" style="whiteSpace=wrap;html=1;aspect=fixed;fillColor=#dae8fc;strokeColor=#6c8ebf;" vertex="1" parent="1">
          <mxGeometry x="517.5" y="60" width="200" height="200" as="geometry" />
        </mxCell>
        <mxCell id="UgS9SmJDnNEr5DDOdhRN-4" value="&lt;b&gt;Database&amp;nbsp; &amp;nbsp; &amp;nbsp; &amp;nbsp; &amp;nbsp; &amp;nbsp; &amp;nbsp; &amp;nbsp; &amp;nbsp; &amp;nbsp; &amp;nbsp; &amp;nbsp; &amp;nbsp; &amp;nbsp; &amp;nbsp; &amp;nbsp; &amp;nbsp; &amp;nbsp; &amp;nbsp; &amp;nbsp; &amp;nbsp; Stripe&lt;/b&gt;" style="rounded=1;whiteSpace=wrap;html=1;fillColor=#f8cecc;strokeColor=#b85450;" vertex="1" parent="1">
          <mxGeometry x="460" y="460" width="315" height="150" as="geometry" />
        </mxCell>
        <mxCell id="UgS9SmJDnNEr5DDOdhRN-5" value="&lt;b&gt;Core&lt;/b&gt;&lt;br&gt;&lt;br&gt;&lt;br&gt;Entites&lt;br&gt;Interfaces&lt;br&gt;&lt;br&gt;&lt;br&gt;&lt;br&gt;" style="whiteSpace=wrap;html=1;aspect=fixed;fillColor=#fff2cc;strokeColor=#d6b656;" vertex="1" parent="1">
          <mxGeometry x="90" y="410" width="220" height="220" as="geometry" />
        </mxCell>
      </root>
    </mxGraphModel>
  </diagram>
</mxfile>
